<?xml version="1.0" standalone="no"?>
<!DOCTYPE svg PUBLIC "-//W3C//DTD SVG 20010904//EN"
 "http://www.w3.org/TR/2001/REC-SVG-20010904/DTD/svg10.dtd">
<svg version="1.0" xmlns="http://www.w3.org/2000/svg"
 width="300.000000pt" height="300.000000pt" viewBox="0 0 300.000000 300.000000"
 preserveAspectRatio="xMidYMid meet">
<metadata>
Created by potrace 1.11, written by Peter Selinger 2001-2013
</metadata>
<g transform="translate(0.000000,300.000000) scale(0.100000,-0.100000)"
fill="#000000" stroke="none">
<path d="M55 2980 c-10 -11 -26 -20 -37 -20 -20 0 -25 -19 -5 -21 6 -1 32 -1
57 0 54 2 38 -14 -24 -25 -27 -4 -35 -9 -25 -15 11 -7 11 -9 -2 -9 -12 0 -16
-11 -17 -42 -1 -41 -1 -42 12 -19 7 13 16 19 19 14 4 -6 -2 -22 -13 -36 -20
-25 -20 -43 -20 -1416 l0 -1391 581 0 581 0 -7 30 c-9 39 7 39 22 0 l11 -30
194 2 c158 3 192 6 190 17 -2 7 6 20 17 28 11 7 18 20 15 28 -4 9 0 15 10 15
9 0 16 8 16 18 0 10 4 22 9 28 16 15 22 71 11 99 -9 23 -7 28 20 43 16 9 30
22 30 28 0 6 7 17 15 24 8 7 12 16 9 21 -3 5 2 6 10 3 10 -4 20 3 27 20 7 14
16 23 20 20 5 -3 9 4 9 15 0 12 4 21 8 21 5 0 14 12 20 26 7 14 17 22 22 19 6
-3 10 5 10 18 0 20 -4 23 -25 19 -14 -2 -25 -7 -25 -11 0 -3 -7 -15 -16 -26
-13 -17 -16 -18 -25 -5 -8 11 -9 9 -3 -10 6 -22 5 -24 -10 -11 -9 8 -15 20
-12 27 3 7 1 16 -4 19 -6 4 -10 -6 -10 -20 0 -14 -4 -23 -10 -20 -5 3 -20 -1
-33 -10 -24 -15 -24 -15 -40 32 -14 41 -17 45 -23 26 -3 -13 -13 -23 -20 -23
-8 0 -14 -6 -14 -12 0 -9 -4 -8 -10 2 -5 8 -10 20 -10 25 0 6 5 3 10 -5 8 -13
10 -12 10 3 0 10 5 15 10 12 6 -3 10 1 10 11 0 12 -6 15 -25 12 -29 -6 -29 -8
-10 28 8 16 15 22 15 14 0 -10 11 -3 31 18 16 17 36 32 43 32 8 0 16 6 19 14
7 17 -28 51 -42 42 -6 -4 -20 -2 -31 4 -15 8 -19 17 -14 35 5 21 3 25 -16 25
-12 0 -28 6 -36 14 -14 15 -29 15 -69 1 -14 -5 -16 -4 -7 3 10 7 6 12 -18 22
-17 7 -29 18 -27 24 5 15 65 20 82 6 15 -12 89 3 100 20 4 6 -5 6 -22 -1 -19
-7 -29 -7 -31 0 -2 6 -12 11 -23 11 -13 0 -19 7 -19 24 0 19 7 25 42 34 31 8
44 8 49 0 6 -9 11 -8 22 1 9 7 26 9 40 6 14 -4 27 -3 30 2 3 5 -3 9 -13 9 -11
-1 -18 2 -17 5 4 12 -33 39 -55 39 -21 0 -21 2 14 35 40 39 59 45 51 17 -3
-12 4 -22 21 -30 14 -6 26 -8 27 -4 6 45 6 82 -2 82 -5 0 -9 8 -9 18 0 12 -2
14 -9 4 -6 -10 -13 -9 -32 7 -17 14 -33 17 -58 13 -25 -4 -32 -2 -27 7 5 7 14
10 20 8 7 -3 30 3 52 14 l39 19 -53 -4 c-42 -2 -60 -9 -84 -32 -17 -16 -28
-23 -23 -15 5 9 -8 27 -39 57 -47 43 -47 44 -40 91 3 27 12 71 19 98 7 28 13
93 12 145 l-2 95 30 3 c42 4 57 -12 89 -95 39 -102 57 -113 194 -119 59 -3
136 -1 172 4 59 8 53 9 -74 10 -202 2 -223 8 -252 64 -12 24 -13 32 -3 45 11
12 9 18 -8 31 -27 21 -37 56 -24 79 8 14 11 15 11 3 2 -36 111 -120 157 -120
8 0 27 -7 43 -15 17 -9 30 -11 30 -5 0 5 7 10 15 10 8 0 12 -6 9 -14 -3 -9 5
-21 19 -31 24 -16 29 -14 136 40 61 30 111 52 111 48 0 -5 -5 -26 -11 -48 -13
-48 -35 -75 -63 -76 -16 -1 -17 -2 -4 -6 30 -8 59 18 84 73 21 47 31 58 70 74
53 23 74 26 56 8 -15 -15 -17 -162 -2 -153 6 3 10 15 10 26 0 10 4 19 9 19 5
0 12 18 16 39 4 22 17 52 31 66 13 14 24 31 24 37 0 6 13 8 30 6 24 -4 30 -1
30 14 0 11 -4 16 -10 13 -16 -10 -11 31 5 45 18 15 20 0 2 -20 -6 -8 -2 -6 10
4 13 10 20 23 17 27 -3 5 -1 9 5 9 5 0 13 -9 16 -20 3 -11 11 -20 17 -20 5 0
7 -7 4 -16 -3 -8 -2 -12 3 -9 5 3 12 1 15 -4 9 -14 -31 -44 -59 -44 -21 1 -25
-4 -25 -31 0 -18 -11 -69 -24 -114 -16 -54 -20 -82 -12 -83 6 0 2 -4 -9 -9
-19 -9 -19 -9 3 -16 12 -3 22 -14 22 -23 0 -9 3 -27 7 -40 4 -17 3 -22 -5 -17
-7 4 -13 1 -14 -6 0 -7 -4 7 -7 31 -3 25 -11 46 -16 48 -6 2 -25 -24 -44 -58
-31 -56 -33 -64 -23 -98 6 -20 9 -46 6 -59 -4 -13 -2 -22 5 -22 6 0 11 -5 11
-12 0 -9 -3 -9 -11 -1 -14 14 -99 -41 -99 -65 0 -9 -7 -35 -14 -57 -14 -39
-14 -40 17 -72 23 -24 35 -29 44 -21 10 8 13 7 13 -3 0 -8 40 -29 98 -51 70
-28 113 -51 154 -87 31 -27 54 -51 51 -55 -9 -8 18 -37 28 -30 5 3 9 -4 9 -14
0 -27 25 -84 33 -75 4 3 7 -7 7 -23 0 -20 3 -25 9 -16 7 11 10 10 15 -3 3 -9
6 -24 6 -33 -1 -13 -6 -11 -24 9 -16 19 -30 26 -47 23 -13 -2 -31 1 -40 8 -16
13 -61 93 -78 138 -5 14 -22 43 -39 65 -26 37 -36 42 -96 55 -36 7 -66 16 -66
19 0 3 -27 7 -60 8 l-60 2 0 -50 c0 -28 5 -60 11 -72 13 -24 77 -85 127 -119
70 -49 77 -170 9 -159 -4 1 -3 -8 3 -19 8 -14 8 -20 0 -20 -6 0 -15 10 -20 23
l-9 22 0 -22 c-1 -12 4 -25 9 -28 6 -3 10 -12 9 -18 0 -9 -2 -9 -6 1 -8 21
-19 13 -32 -25 -14 -40 -84 -103 -115 -103 -29 0 -59 -21 -101 -69 -22 -25
-55 -60 -72 -78 -18 -18 -33 -35 -33 -38 0 -3 58 -5 129 -5 94 0 131 3 134 13
4 9 6 9 6 0 1 -10 87 -13 396 -13 l395 0 0 430 c0 337 -3 430 -12 430 -9 0 -8
4 2 11 11 8 12 12 3 16 -7 2 -13 9 -13 14 0 6 5 7 10 4 7 -4 10 43 9 139 0
101 -4 146 -12 150 -9 3 -9 5 1 5 6 1 12 8 12 17 0 10 -6 14 -14 11 -8 -3 -17
-1 -20 6 -2 7 -5 4 -5 -5 -1 -10 -7 -18 -15 -18 -8 0 -17 -7 -20 -16 -5 -14
-4 -15 9 -4 23 19 28 6 6 -14 -19 -17 -20 -17 -36 14 -21 41 -13 64 20 56 17
-4 27 -1 35 11 8 13 13 14 16 6 15 -36 24 -3 24 87 l0 100 -65 0 c-36 0 -65 3
-65 8 0 4 29 5 65 4 l65 -4 0 186 c0 179 -1 186 -20 186 -11 0 -20 5 -20 10 0
12 -20 13 -39 1 -12 -8 -12 -12 -2 -24 10 -13 4 -16 -38 -22 -30 -4 -57 -2
-68 4 -10 6 -12 11 -5 11 6 0 12 7 12 16 0 11 -5 14 -16 10 -9 -3 -30 -6 -49
-6 -24 0 -34 -5 -38 -19 -4 -15 -12 -19 -41 -17 -24 2 -33 -1 -29 -8 3 -6 0
-5 -8 2 -16 15 -33 16 -23 0 5 -7 3 -8 -6 -3 -21 13 -60 14 -60 2 0 -7 -5 -6
-10 3 -9 13 -11 13 -20 0 -9 -12 -10 -12 -8 5 3 18 -2 20 -38 17 -40 -2 -42
-1 -59 44 -9 25 -14 48 -11 51 3 4 6 1 6 -5 0 -7 5 -12 10 -12 15 0 12 19 -5
36 -8 9 -15 25 -15 37 -2 88 -8 204 -11 216 -2 7 2 16 9 18 6 3 12 0 12 -7 0
-6 4 -9 9 -6 11 7 9 -44 -2 -61 -6 -9 -1 -12 18 -11 21 2 26 7 23 23 -4 18 0
21 26 17 21 -2 27 0 18 6 -7 5 -10 16 -6 25 5 13 2 16 -12 11 -18 -5 -18 -5 0
10 11 9 17 19 13 22 -3 4 5 21 18 39 30 39 32 49 5 33 -11 -7 -20 -19 -20 -26
0 -7 -4 -10 -10 -7 -6 3 -10 -1 -10 -11 0 -13 -3 -14 -15 -4 -22 18 -19 27 18
39 24 9 28 14 18 20 -7 5 -10 14 -7 20 4 6 1 11 -8 11 -9 0 -18 11 -22 25 -5
21 -9 23 -21 14 -12 -10 -13 -7 -8 21 5 31 4 32 -20 26 -17 -4 -31 -1 -41 8
-19 20 -44 10 -44 -17 0 -21 0 -21 -16 1 -8 12 -22 22 -31 22 -11 0 -13 3 -5
13 6 7 14 28 17 47 8 43 11 46 31 30 13 -12 17 -11 24 0 5 8 8 16 6 18 -5 4
-48 14 -68 15 -26 2 -22 12 10 27 18 8 22 14 13 18 -7 2 -17 -2 -22 -9 -7 -11
-9 -11 -9 -1 0 7 -4 10 -10 7 -15 -9 -12 22 4 37 16 17 3 48 -20 48 -11 0 -13
6 -8 23 4 12 10 24 13 27 9 7 8 27 -2 36 -4 5 -10 -1 -13 -13 -4 -14 -12 -19
-23 -16 -10 2 -23 -3 -30 -11 -11 -13 -11 -17 3 -22 37 -14 10 -23 -46 -15 -3
1 -5 17 -4 36 2 19 -2 36 -8 38 -8 3 -7 8 1 18 10 10 16 8 33 -11 16 -18 20
-20 20 -7 0 10 8 17 20 17 24 0 26 22 4 41 -15 12 -16 11 -10 -11 6 -24 6 -24
-9 3 -9 15 -13 32 -10 37 3 6 -1 7 -9 4 -9 -3 -16 -2 -16 4 0 6 -3 18 -6 26
-5 12 -2 15 12 9 13 -5 15 -3 9 8 -12 18 -14 50 -4 43 10 -6 31 31 23 39 -4 3
-482 6 -1063 7 -1050 1 -1058 0 -1076 -20z m285 -35 c0 -19 -4 -35 -10 -35
-11 0 -13 30 -4 54 10 25 14 19 14 -19z m240 25 c0 -5 -5 -10 -11 -10 -5 0 -7
5 -4 10 3 6 8 10 11 10 2 0 4 -4 4 -10z m1504 -6 c3 -8 2 -12 -4 -9 -6 3 -10
10 -10 16 0 14 7 11 14 -7z m36 6 c0 -5 -2 -10 -4 -10 -3 0 -8 5 -11 10 -3 6
-1 10 4 10 6 0 11 -4 11 -10z m-1830 -29 c0 -6 -4 -13 -10 -16 -5 -3 -10 1
-10 9 0 9 5 16 10 16 6 0 10 -4 10 -9z m1654 -9 c3 -5 -1 -9 -9 -9 -8 0 -15 4
-15 9 0 4 4 8 9 8 6 0 12 -4 15 -8z m-1854 -36 c0 -8 -4 -18 -10 -21 -5 -3
-10 3 -10 14 0 12 5 21 10 21 6 0 10 -6 10 -14z m1990 4 c0 -5 -7 -10 -15 -10
-8 0 -15 5 -15 10 0 6 7 10 15 10 8 0 15 -4 15 -10z m-1750 -52 c0 -19 -2 -20
-10 -8 -13 19 -13 30 0 30 6 0 10 -10 10 -22z m-210 -40 c0 -10 -7 -18 -15
-18 -8 0 -15 -6 -15 -12 0 -9 -4 -8 -10 2 -14 22 -12 30 8 30 16 1 16 1 0 11
-9 5 -15 16 -12 24 5 11 9 11 25 -3 10 -9 19 -24 19 -34z m2042 20 c-9 -9 -15
-9 -24 0 -10 10 -10 15 2 22 9 6 19 5 24 0 7 -7 6 -14 -2 -22z m-82 -4 c0 -8
4 -13 9 -9 6 3 15 -4 21 -16 13 -24 7 -35 -12 -23 -7 5 -21 7 -30 6 -10 -2
-18 2 -18 8 0 6 5 8 11 4 9 -5 10 1 5 20 -4 15 -2 26 4 26 5 0 10 -7 10 -16z
m-1601 -45 c-16 -10 -23 -4 -14 10 3 6 11 8 17 5 6 -4 5 -9 -3 -15z m-438 -12
c-10 -9 -11 -8 -5 6 3 10 9 15 12 12 3 -3 0 -11 -7 -18z m159 -1 c0 -8 -4 -17
-9 -20 -10 -7 -23 19 -14 28 11 11 23 6 23 -8z m-95 -16 c3 -5 -1 -10 -10 -10
-9 0 -13 5 -10 10 3 6 8 10 10 10 2 0 7 -4 10 -10z m1960 -10 c3 -5 1 -10 -4
-10 -6 0 -11 5 -11 10 0 6 2 10 4 10 3 0 8 -4 11 -10z m-1905 -10 c0 -5 -8
-10 -17 -10 -15 0 -16 2 -3 10 19 12 20 12 20 0z m-20 -30 c0 -5 -4 -10 -10
-10 -5 0 -10 5 -10 10 0 6 5 10 10 10 6 0 10 -4 10 -10z m-71 -21 c-14 -8 -29
-3 -29 11 0 4 9 6 21 3 15 -4 17 -8 8 -14z m71 -9 c0 -5 -4 -10 -10 -10 -5 0
-10 5 -10 10 0 6 5 10 10 10 6 0 10 -4 10 -10z m2081 -30 c6 0 7 -5 4 -10 -4
-6 -11 -8 -16 -4 -14 8 -41 -17 -35 -33 6 -15 4 -15 -18 -7 -18 7 -22 24 -5
24 17 0 41 29 33 41 -3 6 0 15 7 20 10 6 15 3 17 -11 2 -11 8 -20 13 -20z
m-46 10 c3 -5 2 -10 -4 -10 -5 0 -13 5 -16 10 -3 6 -2 10 4 10 5 0 13 -4 16
-10z m-71 -55 c-7 -16 -24 -21 -24 -6 0 8 7 13 27 20 1 1 0 -6 -3 -14z m146 5
c0 -5 -5 -10 -11 -10 -5 0 -7 5 -4 10 3 6 8 10 11 10 2 0 4 -4 4 -10z m-30
-42 c0 -18 -2 -20 -9 -8 -6 8 -7 18 -5 22 9 14 14 9 14 -14z m-370 -55 c0 -4
-11 4 -25 19 -14 15 -25 31 -25 35 0 4 11 -4 25 -19 14 -15 25 -31 25 -35z
m10 -34 c0 -7 11 -9 28 -6 31 6 45 0 50 -23 2 -8 15 -32 30 -53 22 -33 27 -36
33 -20 6 15 9 13 25 -15 76 -134 106 -182 113 -177 12 7 25 -12 51 -77 13 -32
28 -58 33 -58 5 0 6 -7 3 -16 -4 -10 1 -25 10 -35 10 -11 12 -19 6 -19 -6 0
-14 -17 -18 -37 -4 -21 -10 -40 -15 -43 -4 -3 3 -32 17 -65 13 -33 27 -88 31
-122 6 -61 5 -62 -20 -69 -15 -3 -73 3 -131 15 -58 12 -117 21 -132 21 -18 0
-25 4 -21 14 13 34 -124 61 -243 48 -47 -6 -95 -13 -107 -17 -18 -6 -24 -1
-36 27 -8 19 -25 46 -38 60 -21 22 -26 24 -38 11 -17 -18 -25 -81 -17 -125 5
-28 11 -34 35 -36 16 -1 41 2 55 8 29 10 37 -5 14 -28 -18 -18 -108 -16 -108
3 0 8 -4 15 -8 15 -12 0 -64 95 -78 140 -6 19 -20 39 -32 45 -22 10 -29 24
-55 108 -14 45 -13 47 5 47 11 0 22 -9 25 -20 9 -32 31 -23 42 17 8 28 7 39
-2 45 -9 6 -9 8 0 8 7 0 17 19 23 43 6 23 13 50 16 59 4 14 1 16 -12 11 -12
-4 -15 -3 -10 6 4 6 2 19 -5 27 -9 11 -10 20 -2 32 15 24 -2 62 -27 62 -11 0
-20 -4 -20 -10 0 -5 -7 -10 -16 -10 -9 0 -14 7 -12 18 2 9 11 16 21 14 12 -2
15 2 10 14 -4 12 -3 15 5 10 7 -4 20 1 31 11 11 10 43 26 73 37 29 10 55 22
58 26 3 4 31 10 63 13 33 4 65 11 72 17 8 7 25 10 38 8 13 -1 32 3 41 11 13
11 16 11 16 0 1 -10 4 -9 14 3 10 13 15 15 24 6 7 -7 12 -8 12 -2 0 5 5 2 10
-6 9 -13 12 -13 24 2 7 10 16 15 19 11 4 -3 7 1 7 10 0 10 5 17 10 17 6 0 10
-5 10 -11z m534 -218 c3 -5 0 -11 -8 -14 -15 -6 -26 1 -26 15 0 11 27 10 34
-1z m-1034 -37 c0 -8 -5 -12 -10 -9 -6 4 -8 11 -5 16 9 14 15 11 15 -7z m1065
6 c4 -6 -5 -10 -19 -10 -14 0 -26 5 -26 10 0 6 9 10 19 10 11 0 23 -4 26 -10z
m-1058 -152 c-3 -8 -6 -5 -6 6 -1 11 2 17 5 13 3 -3 4 -12 1 -19z m1227 -294
c5 -14 4 -15 -9 -4 -17 14 -19 20 -6 20 5 0 12 -7 15 -16z m-2494 -4 c0 -5 -4
-10 -10 -10 -5 0 -10 5 -10 10 0 6 5 10 10 10 6 0 10 -4 10 -10z m2585 0 c3
-5 1 -10 -4 -10 -6 0 -11 5 -11 10 0 6 2 10 4 10 3 0 8 -4 11 -10z m-2660 -10
c3 -5 1 -10 -4 -10 -6 0 -11 5 -11 10 0 6 2 10 4 10 3 0 8 -4 11 -10z m2431
-36 c-3 -9 -6 -18 -6 -20 0 -3 -4 -3 -10 1 -11 7 -2 35 12 35 6 0 7 -7 4 -16z
m-2356 -78 c0 -3 -4 -8 -10 -11 -5 -3 -10 -1 -10 4 0 6 5 11 10 11 6 0 10 -2
10 -4z m2000 -16 c35 -19 25 -48 -21 -61 -34 -11 -45 -10 -62 2 -12 7 -51 29
-87 47 l-65 34 107 -6 c59 -2 116 -10 128 -16z m492 -90 c-1 -14 1 -19 4 -12
3 6 10 10 15 6 15 -9 10 -20 -16 -32 -21 -10 -25 -9 -26 6 0 10 -3 12 -6 5 -2
-7 -9 -13 -15 -13 -6 0 -7 7 -4 16 3 8 2 13 -3 9 -5 -3 -11 -2 -14 2 -5 10 -2
-5 7 -32 5 -16 2 -21 -14 -21 -12 0 -16 4 -11 9 6 6 5 19 -1 33 -16 35 -4 56
27 44 22 -8 25 -7 25 14 0 12 3 26 7 30 10 9 26 -33 25 -64z m-692 32 c0 -4
15 -8 34 -9 40 -1 62 -12 49 -23 -4 -5 -32 -18 -62 -30 -51 -20 -56 -20 -102
-5 -48 16 -71 43 -26 31 12 -3 38 -3 58 0 30 5 36 10 32 25 -3 10 0 19 6 19 6
0 11 -4 11 -8z m-983 -34 c-3 -8 -6 -5 -6 6 -1 11 2 17 5 13 3 -3 4 -12 1 -19z
m-47 -53 c0 -5 -5 -3 -10 5 -5 8 -10 20 -10 25 0 6 5 3 10 -5 5 -8 10 -19 10
-25z m1572 3 c-7 -7 -12 -8 -12 -2 0 6 3 14 7 17 3 4 9 5 12 2 2 -3 -1 -11 -7
-17z m-1525 -30 c-3 -8 -6 -5 -6 6 -1 11 2 17 5 13 3 -3 4 -12 1 -19z m1805
10 c61 1 98 -2 98 -8 0 -6 -46 -10 -120 -10 -66 0 -120 -3 -120 -7 0 -5 -3
-18 -6 -30 -4 -14 -2 -23 5 -23 6 0 11 9 11 19 0 10 7 22 16 25 27 10 34 -4
14 -24 -22 -22 -27 -60 -7 -60 8 -1 7 -5 -3 -13 -16 -12 -16 -47 1 -47 22 0 7
-16 -17 -18 -15 -1 -33 -10 -40 -20 -12 -16 -13 -15 -14 5 0 12 -6 23 -12 26
-8 2 -9 8 -4 13 5 5 11 4 13 -3 7 -19 23 -16 24 5 0 15 1 15 8 -2 6 -17 8 -17
14 -3 3 9 -1 21 -10 29 -13 10 -17 10 -20 1 -5 -15 -33 -18 -33 -3 0 5 14 13
32 18 37 9 50 32 18 32 -14 0 -25 10 -34 30 -13 32 -25 30 -27 -4 0 -13 -3
-16 -6 -7 -5 11 -7 11 -14 0 -5 -8 -9 -9 -9 -3 0 6 11 21 25 34 l26 24 6 -22
c3 -12 10 -22 15 -22 5 0 7 9 3 19 -4 13 3 25 22 39 15 11 32 18 38 14 5 -3
53 -5 107 -4z m-272 -58 c0 -5 -8 -10 -17 -10 -15 0 -16 2 -3 10 19 12 20 12
20 0z m300 -15 c0 -12 4 -14 16 -7 12 7 22 4 36 -10 18 -18 18 -21 5 -36 -17
-18 -40 -72 -32 -72 3 0 10 12 15 26 6 14 14 22 20 19 6 -4 6 -12 0 -23 -5 -9
-16 -34 -24 -54 -14 -37 -14 -38 6 -38 21 0 21 0 2 -15 -16 -12 -17 -16 -4
-24 8 -6 12 -12 9 -15 -7 -7 -22 6 -35 29 -9 15 -8 26 2 48 13 23 13 27 0 27
-8 0 -16 -10 -18 -22 -3 -23 -38 -35 -38 -12 0 9 -9 13 -30 10 -28 -3 -35 4
-31 28 1 4 -3 14 -9 21 -7 9 -8 15 -1 19 6 4 17 -6 25 -21 8 -15 15 -23 16
-18 0 6 5 3 10 -5 7 -11 10 -6 10 21 0 23 6 39 15 42 13 5 12 11 -1 43 -14 33
-14 36 0 31 10 -4 16 -1 16 8 0 8 5 15 10 15 6 0 10 -7 10 -15z m-110 -9 c0
-8 4 -16 9 -18 5 -1 13 -16 17 -33 7 -28 6 -29 -10 -16 -15 13 -19 13 -27 0
-12 -19 -11 -2 1 21 7 13 7 21 0 25 -13 8 -13 35 0 35 6 0 10 -6 10 -14z
m-166 -25 c3 -4 -1 -17 -9 -27 -14 -18 -14 -18 -15 9 0 26 13 36 24 18z
m-2437 -33 c-3 -8 -6 -5 -6 6 -1 11 2 17 5 13 3 -3 4 -12 1 -19z m2467 -6 c-6
-4 -13 -15 -17 -24 -6 -16 -27 -26 -27 -12 0 17 23 44 38 44 10 0 13 -3 6 -8z
m-2194 -12 c0 -5 -4 -10 -10 -10 -5 0 -10 5 -10 10 0 6 5 10 10 10 6 0 10 -4
10 -10z m2678 -18 c2 -7 -6 -12 -17 -12 -21 0 -27 11 -14 24 9 9 26 2 31 -12z
m-113 -2 c-4 -6 -1 -17 5 -25 9 -11 9 -18 -3 -30 -21 -20 -33 -19 -16 2 16 18
16 23 -1 33 -14 8 -5 30 11 30 6 0 7 -5 4 -10z m-2516 -60 c0 -10 -3 -8 -9 5
-12 27 -12 43 0 25 5 -8 9 -22 9 -30z m58 18 c-3 -8 -6 -5 -6 6 -1 11 2 17 5
13 3 -3 4 -12 1 -19z m2077 5 c-5 -5 -12 -12 -16 -18 -4 -6 -8 -2 -8 8 0 9 7
17 17 17 9 0 12 -3 7 -7z m-2044 -18 c0 -8 -4 -15 -10 -15 -5 0 -10 7 -10 15
0 8 5 15 10 15 6 0 10 -7 10 -15z m2142 -11 c-3 -17 -8 -22 -15 -15 -11 11 -3
41 11 41 5 0 7 -12 4 -26z m58 -26 c0 -6 -7 -5 -15 2 -8 7 -15 17 -15 22 0 6
7 5 15 -2 8 -7 15 -17 15 -22z m-2295 9 c10 -8 15 -19 11 -25 -10 -17 -26 -15
-20 3 4 9 0 15 -9 15 -9 0 -19 5 -22 10 -9 15 18 12 40 -3z m2135 -38 c0 -3
-12 -11 -27 -18 l-28 -12 25 21 c19 15 20 19 6 13 -16 -5 -18 -3 -13 11 4 10
7 23 7 29 1 11 29 -31 30 -44z m17 19 c-3 -7 -5 -2 -5 12 0 14 2 19 5 13 2 -7
2 -19 0 -25z m-63 7 c-4 -8 -8 -15 -10 -15 -2 0 -4 7 -4 15 0 8 4 15 10 15 5
0 7 -7 4 -15z m236 -7 c0 -16 -3 -19 -11 -11 -6 6 -8 16 -5 22 11 17 16 13 16
-11z m200 6 c0 -14 -3 -14 -15 -4 -8 7 -15 14 -15 16 0 2 7 4 15 4 8 0 15 -7
15 -16z m-2430 -8 c0 -7 -6 -19 -14 -25 -12 -10 -14 -9 -11 6 2 10 4 21 4 26
2 13 21 7 21 -7z m-40 -16 c0 -11 -4 -20 -9 -20 -6 0 -9 9 -8 20 1 11 5 20 9
20 4 0 8 -9 8 -20z m86 -1 c3 -6 3 -14 -2 -18 -5 -3 -9 -12 -10 -18 -3 -37 -5
-43 -13 -43 -6 0 -9 9 -8 20 1 11 4 20 8 20 3 0 5 11 4 25 -3 26 9 34 21 14z
m2254 -3 c0 -3 -4 -8 -10 -11 -5 -3 -10 -1 -10 4 0 6 5 11 10 11 6 0 10 -2 10
-4z m-126 -21 c3 -8 1 -15 -4 -15 -6 0 -10 7 -10 15 0 8 2 15 4 15 2 0 6 -7
10 -15z m66 -6 c0 -5 -4 -9 -10 -9 -5 0 -10 7 -10 16 0 8 5 12 10 9 6 -3 10
-10 10 -16z m250 7 c0 -3 -4 -8 -10 -11 -5 -3 -10 -1 -10 4 0 6 5 11 10 11 6
0 10 -2 10 -4z m46 -23 c-7 -7 -26 7 -26 19 0 6 6 6 15 -2 9 -7 13 -15 11 -17z
m-2551 -14 c11 -16 1 -19 -13 -3 -7 8 -8 14 -3 14 5 0 13 -5 16 -11z m1989
-21 c3 -13 1 -27 -4 -32 -7 -7 -10 -4 -10 6 0 9 -3 23 -6 32 -3 9 -2 16 4 16
5 0 12 -10 16 -22z m36 -18 c0 -7 -6 -6 -15 4 -8 8 -15 20 -15 26 0 7 6 6 15
-4 8 -8 15 -20 15 -26z m140 5 c11 -13 10 -14 -4 -9 -9 3 -16 10 -16 15 0 13
6 11 20 -6z m105 -45 c7 -12 -12 -50 -25 -50 -6 0 -10 5 -10 11 0 5 5 7 10 4
6 -3 10 1 10 10 0 9 -4 14 -9 11 -5 -3 -11 1 -15 9 -6 17 29 22 39 5z m95 6
c0 -3 -4 -8 -10 -11 -5 -3 -10 -1 -10 4 0 6 5 11 10 11 6 0 10 -2 10 -4z
m-266 -38 c-10 -16 -22 -7 -17 13 4 15 8 17 14 8 4 -7 5 -17 3 -21z m65 0
c-13 -48 -29 -57 -17 -9 6 22 14 41 19 41 4 0 3 -14 -2 -32z m341 28 c0 -11
-19 -15 -25 -6 -3 5 1 10 9 10 9 0 16 -2 16 -4z m-524 -73 c1 -39 -1 -43 -8
-23 -7 20 -4 70 5 70 1 0 2 -21 3 -47z m-861 17 c-3 -5 -14 -10 -23 -10 -15 0
-15 2 -2 10 20 13 33 13 25 0z m705 -24 c0 -7 -6 -13 -14 -13 -11 0 -13 9 -7
35 2 9 21 -11 21 -22z m405 14 c3 -5 1 -10 -4 -10 -6 0 -11 5 -11 10 0 6 2 10
4 10 3 0 8 -4 11 -10z m-205 -9 c0 -6 -4 -13 -10 -16 -5 -3 -10 1 -10 9 0 9 5
16 10 16 6 0 10 -4 10 -9z m500 -1 c0 -5 -2 -10 -4 -10 -3 0 -8 5 -11 10 -3 6
-1 10 4 10 6 0 11 -4 11 -10z m-250 -26 c0 -2 -7 -4 -15 -4 -8 0 -15 4 -15 10
0 5 7 7 15 4 8 -4 15 -8 15 -10z m-163 -30 c-3 -27 -31 -64 -47 -64 -16 0 -12
17 6 24 8 3 12 11 9 17 -5 8 -10 8 -18 0 -6 -6 -16 -11 -21 -11 -16 1 27 24
44 25 9 0 15 9 14 22 0 12 3 20 8 17 5 -3 7 -17 5 -30z m223 26 c0 -13 -11
-13 -30 0 -12 8 -11 10 8 10 12 0 22 -4 22 -10z m61 -31 c-20 -21 -24 -18 -16
14 6 21 10 24 20 14 11 -10 10 -15 -4 -28z m-1341 -34 c0 -10 -10 -15 -30 -15
-49 0 -34 24 18 29 6 0 12 -6 12 -14z m1057 -17 c-3 -8 -6 -5 -6 6 -1 11 2 17
5 13 3 -3 4 -12 1 -19z m318 -8 c3 -5 1 -10 -4 -10 -6 0 -11 5 -11 10 0 6 2
10 4 10 3 0 8 -4 11 -10z m-235 -21 c0 -11 -4 -17 -10 -14 -5 3 -10 13 -10 21
0 8 5 14 10 14 6 0 10 -9 10 -21z m188 -19 c-7 -11 -15 -15 -17 -9 -2 6 3 15
10 20 20 12 21 11 7 -11z m-1841 -26 c-3 -3 -12 -4 -19 -1 -8 3 -5 6 6 6 11 1
17 -2 13 -5z m1733 -22 c0 -13 -12 -22 -22 -16 -10 6 -1 24 13 24 5 0 9 -4 9
-8z m142 -14 c-7 -7 -13 -21 -13 -32 -1 -17 -2 -18 -6 -3 -2 9 -13 17 -24 17
-10 0 -19 4 -19 9 0 4 11 6 25 3 15 -2 25 0 25 7 0 6 5 11 12 11 9 0 9 -3 0
-12z m-1937 -38 c-10 -11 -23 -20 -28 -20 -13 0 24 39 37 39 5 1 1 -8 -9 -19z
m1811 -129 c1 -22 -3 -28 -14 -23 -8 3 -21 -3 -28 -12 -7 -10 -18 -15 -25 -11
-8 6 -7 10 5 17 9 5 14 13 11 19 -3 5 1 6 9 3 10 -4 16 -1 16 9 0 8 6 18 13
20 6 3 12 6 12 6 0 1 0 -12 1 -28z m84 -26 c7 -14 10 -28 7 -32 -4 -3 -7 1 -7
10 0 10 -7 17 -15 17 -8 0 -15 7 -15 15 0 23 15 18 30 -10z m-94 -113 c-12
-11 -14 4 -8 53 l7 50 3 -49 c2 -26 1 -51 -2 -54z m114 38 c0 -5 -2 -10 -4
-10 -3 0 -8 5 -11 10 -3 6 -1 10 4 10 6 0 11 -4 11 -10z m135 -20 c3 -6 -1 -7
-9 -4 -18 7 -21 14 -7 14 6 0 13 -4 16 -10z m-54 -109 l21 -19 -23 -12 c-19
-11 -21 -10 -15 5 4 11 0 22 -11 31 -12 9 -13 13 -5 14 7 0 22 -9 33 -19z
m-68 -13 c12 -13 13 -18 4 -18 -8 0 -21 8 -30 18 -23 25 2 25 26 0z m-543 -39
c0 -6 -4 -7 -10 -4 -5 3 -10 11 -10 16 0 6 5 7 10 4 6 -3 10 -11 10 -16z"/>
<path d="M2767 1365 c-3 -7 1 -16 8 -19 20 -7 26 6 10 21 -10 10 -14 9 -18 -2z"/>
<path d="M2727 1364 c-6 -10 9 -42 16 -34 3 3 1 14 -3 24 -3 11 -9 15 -13 10z"/>
<path d="M2748 1313 c-23 -27 -28 -50 -12 -50 8 0 14 8 14 17 0 9 5 21 12 28
6 6 9 14 6 17 -2 3 -12 -3 -20 -12z"/>
<path d="M2725 1240 c3 -5 8 -10 11 -10 2 0 4 5 4 10 0 6 -5 10 -11 10 -5 0
-7 -4 -4 -10z"/>
<path d="M0 2980 c0 -13 11 -13 30 0 12 8 11 10 -7 10 -13 0 -23 -4 -23 -10z"/>
<path d="M2245 2958 c-4 -18 -7 -36 -6 -40 0 -5 -8 -8 -18 -8 -25 0 -38 -20
-21 -30 7 -4 10 -12 6 -18 -3 -5 3 -12 14 -15 12 -3 20 -14 20 -26 0 -23 1
-24 24 -15 19 7 21 51 4 56 -8 3 -4 9 10 17 12 6 22 16 22 22 0 6 -7 3 -16 -5
-20 -20 -34 -20 -34 -1 0 8 5 14 11 13 6 -2 14 4 16 12 4 13 3 13 -6 0 -12
-17 -14 -10 -11 38 1 17 0 32 -3 32 -2 0 -8 -15 -12 -32z m5 -89 c0 -5 -7 -9
-15 -9 -9 0 -12 6 -9 15 6 15 24 11 24 -6z"/>
<path d="M2493 2894 c-7 -19 3 -44 18 -44 7 0 9 3 6 7 -4 3 5 15 20 25 16 10
26 18 23 19 -34 8 -62 6 -67 -7z"/>
<path d="M2372 2834 c-7 -8 -8 -15 -2 -19 6 -3 10 0 11 7 0 7 4 2 10 -10 5
-13 6 -29 2 -34 -3 -7 -1 -8 5 -4 15 9 15 37 -1 57 -10 13 -14 14 -25 3z"/>
<path d="M2300 2813 c0 -5 6 -15 13 -22 10 -11 10 -13 0 -7 -7 4 -13 2 -13 -4
0 -6 -6 -8 -12 -4 -7 4 -5 -2 5 -13 21 -24 23 -40 2 -23 -13 11 -14 10 -9 -5
5 -13 4 -16 -4 -11 -7 4 -12 1 -12 -8 0 -8 4 -16 10 -18 5 -1 11 -15 12 -30 3
-33 9 -35 33 -8 11 12 13 20 6 20 -8 0 -11 21 -9 66 2 47 -1 68 -9 71 -7 3
-13 1 -13 -4z"/>
<path d="M2385 2727 c-9 -34 -3 -72 12 -72 6 0 14 -3 18 -6 10 -11 46 2 42 15
-2 6 -16 12 -31 14 -20 3 -26 8 -22 19 3 8 6 19 6 24 0 4 7 6 15 3 8 -4 15 -1
15 5 0 6 -4 11 -9 11 -5 0 -16 3 -25 6 -10 4 -17 -2 -21 -19z"/>
<path d="M2572 2693 c-16 -28 -15 -33 3 -33 8 0 15 -6 15 -12 0 -7 12 0 26 16
20 22 23 31 12 37 -8 5 -17 1 -24 -14 l-12 -21 -4 24 -3 25 -13 -22z"/>
<path d="M2454 2600 c-4 -16 -10 -30 -14 -30 -4 0 -10 -9 -13 -20 -6 -23 5
-26 22 -6 12 14 24 86 15 86 -3 0 -7 -13 -10 -30z"/>
<path d="M2510 2620 c0 -5 7 -7 15 -4 8 4 15 8 15 10 0 2 -7 4 -15 4 -8 0 -15
-4 -15 -10z"/>
<path d="M2371 2548 c-6 -17 -5 -24 6 -26 18 -4 43 16 43 34 0 23 -40 16 -49
-8z"/>
<path d="M2475 2379 c-9 -14 -2 -20 14 -10 8 6 9 11 3 15 -6 3 -14 1 -17 -5z"/>
<path d="M2350 1530 c-6 -10 -12 -38 -15 -62 -2 -24 -7 -65 -9 -93 l-6 -50 29
70 c38 92 49 155 27 155 -8 0 -20 -9 -26 -20z"/>
<path d="M1707 1298 c13 -39 23 -81 23 -95 0 -13 11 -46 25 -73 28 -55 30 -64
13 -54 -8 5 -9 2 -5 -9 3 -9 2 -19 -3 -22 -6 -4 -10 1 -10 9 0 24 -16 19 -17
-5 -1 -14 7 -23 28 -31 19 -6 29 -17 29 -30 0 -10 5 -16 10 -13 6 3 10 1 10
-5 0 -8 -21 -21 -56 -35 -1 0 -5 -11 -9 -24 -7 -22 -5 -23 18 -17 14 3 32 8
40 12 11 4 16 -7 21 -48 14 -102 74 -119 91 -26 3 12 12 44 21 71 20 60 14
148 -13 186 -10 14 -25 40 -33 56 -17 34 -15 31 -77 108 -43 54 -46 60 -29 69
17 10 16 12 -10 23 -16 6 -43 14 -60 18 l-30 6 23 -71z"/>
<path d="M1870 1330 l-25 -8 25 -1 c14 0 32 4 40 9 13 9 13 10 0 9 -8 -1 -26
-5 -40 -9z"/>
<path d="M2165 860 c-3 -5 1 -10 10 -10 9 0 13 5 10 10 -3 6 -8 10 -10 10 -2
0 -7 -4 -10 -10z"/>
<path d="M1650 494 c0 -8 5 -12 10 -9 6 4 8 11 5 16 -9 14 -15 11 -15 -7z"/>
</g>
</svg>
